<?xml version="1.0" standalone="no"?>
<!DOCTYPE svg PUBLIC "-//W3C//DTD SVG 20010904//EN"
 "http://www.w3.org/TR/2001/REC-SVG-20010904/DTD/svg10.dtd">
<svg version="1.0" xmlns="http://www.w3.org/2000/svg"
 width="480.000000pt" height="360.000000pt" viewBox="0 0 480.000000 360.000000"
 preserveAspectRatio="xMidYMid meet">

<g transform="translate(0.000000,360.000000) scale(0.100000,-0.100000)"
fill="#000000" stroke="none">
<path d="M0 1800 l0 -1800 2400 0 2400 0 0 1800 0 1800 -2400 0 -2400 0 0
-1800z m2694 1276 c28 -7 66 -17 85 -20 57 -10 318 -146 351 -183 17 -18 34
-33 38 -33 20 0 244 -233 285 -295 63 -98 81 -143 112 -280 15 -66 38 -158 51
-205 17 -61 24 -110 24 -174 0 -137 -20 -365 -37 -426 -29 -104 -122 -277
-215 -403 -32 -43 -58 -81 -58 -83 0 -3 -13 -20 -29 -37 -16 -18 -45 -52 -63
-77 -82 -109 -523 -276 -780 -295 -31 -2 -94 3 -140 11 -45 8 -110 19 -143 24
-118 19 -194 38 -232 59 -21 11 -67 32 -102 47 -77 31 -147 74 -216 133 -81
70 -98 84 -148 124 -26 21 -59 59 -74 85 -15 26 -54 85 -85 132 -32 47 -58 89
-58 95 0 11 -42 114 -84 209 -15 32 -29 84 -32 115 -3 31 -12 85 -19 121 -10
49 -11 91 -4 173 11 130 20 170 64 302 19 57 35 110 35 119 0 17 67 167 78
176 4 3 28 37 54 75 38 57 124 150 248 266 38 35 128 99 140 99 14 0 77 37 98
57 7 7 18 13 24 13 6 0 19 6 27 14 9 7 48 21 86 30 39 10 92 24 119 33 32 10
107 18 215 22 182 7 306 -1 385 -23z"/>
<path d="M2151 3074 c-7 -4 -22 -15 -32 -25 -11 -11 -25 -19 -33 -19 -7 0 -19
-7 -26 -15 -6 -7 -35 -27 -63 -43 -29 -16 -72 -49 -97 -72 -27 -26 -31 -31 -9
-13 22 19 63 37 105 48 38 9 91 26 118 36 27 10 55 19 62 19 7 0 24 11 36 25
27 29 94 47 185 49 45 2 64 -1 67 -11 8 -20 -22 -28 -49 -13 -13 7 -36 10 -52
7 -15 -3 -50 -10 -77 -15 -27 -5 -55 -17 -62 -27 -15 -20 -144 -75 -175 -75
-30 0 -117 -36 -154 -64 -71 -54 -82 -15 -14 48 21 20 64 52 96 70 81 48 102
65 82 66 -28 0 -144 -58 -156 -79 -16 -26 -65 -51 -95 -50 -41 3 -78 -18 -78
-45 0 -14 -16 -40 -40 -65 -22 -22 -40 -45 -40 -51 0 -5 -13 -22 -30 -37 -16
-15 -31 -41 -33 -57 -5 -38 -33 -58 -50 -35 -11 14 -14 14 -30 -2 -25 -23 -68
-33 -78 -18 -4 8 -23 -12 -51 -57 -25 -38 -52 -75 -61 -82 -9 -8 -28 -46 -43
-85 -14 -40 -30 -81 -34 -92 -32 -86 -82 -262 -90 -317 -10 -67 -10 -68 19
-96 21 -20 31 -41 35 -72 10 -76 22 -113 48 -152 16 -24 28 -58 32 -95 7 -62
33 -107 109 -188 21 -22 51 -68 68 -103 26 -52 30 -70 25 -105 -4 -30 -1 -58
14 -96 20 -55 19 -74 -5 -69 -27 6 -9 -18 50 -66 33 -28 87 -74 119 -103 33
-29 67 -53 75 -53 9 -1 34 -9 56 -20 22 -11 44 -19 49 -20 9 0 106 -44 166
-74 14 -7 59 -19 100 -26 41 -6 109 -19 150 -27 112 -22 248 -28 311 -14 211
48 475 148 587 224 24 16 47 40 52 53 5 13 13 24 17 24 5 0 13 8 20 18 10 17
8 18 -13 14 -27 -5 -32 12 -11 37 8 9 20 32 27 51 19 49 132 172 145 158 3 -2
-8 -24 -23 -49 -44 -69 -94 -159 -89 -159 6 0 85 104 118 155 82 128 152 265
177 345 10 32 19 92 28 175 2 17 3 102 4 190 1 139 -2 171 -22 240 -22 75 -25
80 -52 83 -17 2 -40 -2 -52 -9 -29 -15 -84 -5 -113 22 -12 12 -25 18 -28 15
-11 -10 20 -58 43 -66 12 -5 24 -18 27 -29 7 -27 27 -27 34 -1 6 21 28 26 52
11 8 -5 16 -26 17 -45 2 -20 6 -41 9 -45 8 -13 -15 -112 -33 -141 -9 -14 -26
-36 -39 -50 -13 -14 -37 -44 -54 -68 -16 -23 -34 -40 -39 -37 -6 3 -7 -1 -4
-9 8 -22 23 -20 79 9 27 13 52 22 56 19 9 -5 -7 -57 -32 -99 -10 -16 -25 -59
-34 -95 -9 -36 -29 -85 -44 -110 -15 -25 -35 -61 -44 -81 -9 -20 -24 -42 -33
-50 -25 -21 -42 -69 -39 -113 4 -60 -14 -107 -56 -151 -22 -22 -58 -58 -79
-80 -22 -22 -40 -48 -40 -57 0 -10 -15 -28 -34 -40 -18 -13 -64 -49 -102 -80
-37 -32 -74 -58 -81 -58 -7 0 -46 -14 -88 -30 -96 -38 -114 -38 -121 -1 -4 17
-14 31 -25 34 -15 4 -19 14 -19 49 0 24 -7 53 -15 64 -21 28 -18 59 10 112 30
57 32 101 5 132 -11 13 -20 33 -20 46 0 15 -9 26 -30 36 -16 7 -30 20 -31 28
0 8 -2 24 -4 34 -2 11 3 29 11 40 31 44 5 75 -63 76 -29 0 -46 6 -55 18 -23
32 -34 32 -109 5 l-73 -26 -53 18 c-48 17 -56 17 -106 3 -61 -18 -64 -17 -97
32 -13 19 -41 50 -62 68 -21 19 -38 39 -38 46 0 7 -18 26 -40 41 -48 33 -57
62 -36 103 21 41 21 111 0 127 -15 10 -14 16 12 61 15 27 40 75 56 107 16 31
35 57 43 57 32 0 129 127 135 176 0 1 13 7 29 14 16 6 38 22 49 35 20 23 20
24 2 40 -11 10 -26 15 -34 12 -22 -9 -32 60 -12 82 9 10 16 32 16 50 0 25 5
34 27 42 15 5 36 9 47 8 67 -5 86 1 86 25 0 13 -9 34 -19 48 -13 16 -17 29
-11 39 10 15 12 16 63 18 27 1 35 8 50 41 14 30 27 42 50 48 22 6 33 15 35 30
4 26 52 32 52 7 0 -19 64 -20 104 -2 24 11 27 16 22 47 -3 19 -6 42 -6 51 0 9
-6 19 -12 22 -10 3 -13 -11 -14 -50 0 -58 -11 -73 -51 -73 -12 0 -28 9 -36 20
-8 12 -21 20 -28 18 -9 -2 -13 4 -11 16 3 14 -1 17 -12 12 -9 -3 -23 -9 -32
-12 -13 -6 -15 0 -11 40 5 43 25 75 50 76 4 0 13 11 19 25 23 51 138 96 152
60 4 -10 14 -13 34 -9 33 7 50 -9 32 -31 -7 -9 -8 -15 0 -20 5 -3 10 -2 10 2
0 5 16 15 36 22 26 9 33 16 25 24 -8 8 -6 16 6 29 15 17 15 18 -9 18 -48 0
-88 12 -88 27 0 11 5 13 18 7 9 -4 35 -9 57 -12 48 -5 60 -15 50 -39 -5 -10
-7 -25 -7 -33 1 -9 -20 -27 -49 -43 -42 -23 -54 -26 -67 -15 -10 7 -19 14 -21
15 -2 1 2 9 9 18 11 13 8 14 -19 9 -24 -5 -31 -3 -31 10 0 9 -8 16 -20 16 -28
0 -100 -47 -100 -65 0 -8 -13 -21 -29 -29 -20 -11 -30 -25 -33 -46 -4 -28 -2
-31 17 -26 16 4 29 -3 51 -29 16 -19 34 -35 41 -35 21 0 35 39 28 81 -5 29 -2
47 10 66 13 19 19 22 25 12 5 -7 6 -17 4 -21 -3 -5 1 -15 10 -23 16 -16 32
-117 21 -134 -3 -6 -15 -11 -25 -11 -10 0 -22 -4 -25 -10 -3 -5 -28 -10 -55
-10 -36 0 -49 4 -54 17 -6 15 -9 14 -19 -7 -7 -14 -22 -26 -34 -28 -25 -4 -60
-39 -65 -67 -2 -16 -12 -21 -51 -23 -51 -3 -54 -7 -32 -36 17 -23 20 -82 5
-91 -6 -4 -40 -7 -75 -6 -35 0 -66 -3 -69 -8 -3 -4 -8 -23 -11 -42 -3 -19 -10
-38 -16 -43 -14 -15 -11 -46 5 -46 7 0 26 -7 42 -15 19 -10 30 -11 35 -4 4 7
19 8 37 4 26 -5 33 -2 48 20 9 14 17 36 18 48 1 15 12 27 34 36 18 8 32 22 32
32 0 19 19 29 56 29 13 0 29 9 36 20 16 25 52 26 70 2 20 -27 68 -55 68 -40 0
7 -7 22 -15 32 -35 46 -1 44 87 -4 46 -25 60 -38 73 -73 9 -23 25 -53 36 -67
l19 -25 -2 45 c-3 42 -1 45 34 64 29 16 36 26 36 48 -1 16 6 36 15 46 10 10
14 22 10 26 -10 10 17 26 44 26 12 0 28 -7 37 -15 10 -10 24 -13 41 -9 38 9
85 -37 85 -83 0 -41 -15 -48 -63 -28 -45 19 -81 19 -96 1 -6 -7 -21 -11 -34
-9 -13 3 -28 -1 -34 -9 -9 -10 -4 -22 21 -51 28 -32 38 -37 76 -37 26 0 51 -6
62 -17 16 -14 18 -14 18 -1 0 24 32 32 47 12 22 -30 27 -85 12 -113 -19 -33
-77 -61 -104 -51 -11 4 -46 8 -77 9 -31 0 -68 5 -82 10 -23 9 -25 8 -28 -22
-3 -32 -3 -32 -65 -35 -58 -3 -64 -1 -89 27 -14 16 -40 33 -58 37 -42 9 -58
23 -51 45 4 12 1 21 -9 25 -9 3 -16 12 -16 19 0 19 -137 7 -175 -15 -38 -23
-136 -36 -163 -21 -15 8 -21 7 -25 -3 -3 -8 -24 -24 -46 -37 -30 -16 -41 -29
-41 -46 0 -26 -92 -134 -125 -146 -12 -4 -30 -26 -40 -50 -10 -23 -31 -63 -47
-89 -27 -44 -28 -48 -14 -71 12 -17 14 -36 10 -71 -4 -25 -11 -49 -15 -52 -5
-3 -9 -19 -9 -36 0 -31 17 -51 58 -68 12 -5 22 -18 22 -28 0 -10 16 -31 36
-47 20 -16 47 -47 61 -68 22 -36 27 -38 56 -33 82 17 99 17 138 2 39 -16 43
-16 114 9 91 31 99 31 119 0 13 -20 25 -25 59 -25 33 0 49 -6 65 -23 26 -28
27 -46 5 -85 -16 -28 -16 -31 0 -56 10 -14 24 -26 32 -26 8 0 18 -12 21 -27 4
-16 14 -41 24 -58 25 -45 24 -91 -5 -140 -29 -50 -31 -73 -10 -101 8 -10 15
-36 15 -57 0 -23 5 -40 14 -43 8 -3 19 -19 25 -35 l10 -28 43 13 c141 45 171
60 226 110 31 28 69 60 85 69 15 10 27 25 27 34 0 8 15 30 33 47 18 17 55 55
82 85 50 53 50 53 56 136 4 71 9 88 34 121 16 21 43 65 60 99 17 33 36 69 42
80 6 11 19 47 29 80 9 33 26 77 36 98 11 22 17 41 15 44 -3 2 -19 -3 -36 -11
-35 -19 -81 -21 -81 -5 0 14 -47 59 -60 59 -13 0 -69 114 -76 153 -3 17 -22
49 -43 72 -21 23 -47 55 -57 71 -10 16 -27 35 -36 42 -21 16 -24 36 -4 29 8
-3 17 1 20 9 11 29 186 -170 186 -212 0 -6 9 -19 20 -29 11 -10 22 -27 26 -38
4 -12 13 -27 20 -35 8 -7 14 -24 14 -38 0 -35 12 -30 51 22 19 25 46 63 61 83
32 42 53 106 42 130 -4 9 -7 27 -8 41 -3 43 -14 52 -36 30 -22 -22 -60 -16
-67 12 -3 10 -12 18 -19 18 -8 0 -26 19 -40 42 -25 39 -25 42 -9 54 15 11 25
9 64 -11 49 -27 81 -32 81 -14 0 7 17 10 45 7 26 -2 45 1 45 7 0 5 -11 56 -24
111 -37 161 -113 282 -263 419 -54 50 -117 103 -141 119 -24 16 -46 34 -50 41
-6 10 -129 83 -157 94 -5 2 -37 16 -71 31 -129 59 -208 72 -459 76 -126 2
-236 1 -244 -2z m509 -34 c0 -5 -11 -10 -25 -10 -14 0 -25 5 -25 10 0 6 11 10
25 10 14 0 25 -4 25 -10z m-453 -127 c8 -21 -31 -53 -66 -53 -16 1 -33 10 -44
25 -18 25 -18 25 5 34 39 16 98 13 105 -6z m92 -126 c6 -8 8 -17 5 -20 -7 -7
22 -73 35 -81 13 -9 0 -56 -18 -65 -23 -12 -90 -21 -107 -14 -21 8 -17 28 11
61 26 31 32 52 15 52 -17 0 -11 39 10 60 23 23 34 25 49 7z m-75 -73 c13 -34
-55 -107 -83 -89 -19 11 44 105 70 105 4 0 10 -7 13 -16z m952 -170 c-2 -47 1
-58 15 -61 10 -3 23 -18 29 -34 7 -16 16 -29 21 -29 4 0 11 -9 14 -20 4 -13
15 -20 31 -20 29 0 31 13 4 40 -11 11 -20 24 -20 30 0 5 -11 17 -24 25 -27 18
-49 48 -60 83 -11 35 7 26 29 -14 11 -20 30 -43 42 -51 13 -9 23 -20 23 -26 0
-5 11 -20 25 -33 44 -41 27 -86 -30 -77 -19 3 -35 14 -43 29 -6 13 -18 35 -24
49 -7 13 -23 27 -35 30 -20 5 -21 10 -19 68 4 71 3 67 15 67 5 0 8 -25 7 -56z
m-1210 -493 c-4 -6 -14 -11 -22 -11 -12 0 -13 4 -3 21 7 14 14 18 21 11 6 -6
7 -15 4 -21z m-56 -11 c0 -5 -4 -12 -10 -15 -5 -3 -10 -4 -10 -1 0 2 -3 12 -6
20 -5 12 -2 15 10 10 9 -3 16 -10 16 -14z m1155 -858 c0 -6 6 -17 13 -23 12
-13 17 -39 6 -39 -12 0 -31 27 -38 54 -5 21 -4 27 6 24 7 -3 13 -10 13 -16z
m82 -119 c-4 -17 -4 -17 -12 0 -4 9 -4 25 0 35 8 16 8 16 12 0 3 -10 3 -26 0
-35z"/>
<path d="M2132 2894 c9 -9 24 -14 32 -11 27 11 17 27 -16 27 -30 0 -31 -1 -16
-16z"/>
<path d="M2253 2753 c-4 -9 -1 -19 5 -21 19 -6 14 -44 -9 -68 -28 -29 -19 -41
26 -36 46 5 51 20 26 66 -12 20 -21 45 -21 56 0 24 -18 26 -27 3z"/>
<path d="M2181 2680 c-12 -17 -18 -30 -14 -30 10 1 46 50 41 56 -3 2 -14 -10
-27 -26z"/>
<path d="M1840 2960 c-14 -11 -20 -20 -14 -20 7 0 22 9 35 20 31 25 12 26 -21
0z"/>
<path d="M1570 2763 c-123 -108 -131 -118 -111 -127 30 -13 45 4 50 57 1 4 12
7 26 7 36 0 75 29 91 67 8 18 18 33 23 33 11 0 65 70 59 76 -3 2 -64 -49 -138
-113z"/>
<path d="M2910 2517 c0 -8 -9 -22 -19 -31 -35 -32 -2 -76 38 -50 23 15 47 15
114 -1 22 -6 27 -4 27 12 0 11 -11 30 -25 43 -23 21 -29 23 -56 13 -28 -11
-32 -10 -36 7 -6 22 -43 28 -43 7z"/>
<path d="M2468 2451 c-8 -14 -23 -21 -44 -21 -21 0 -41 -10 -62 -30 -18 -16
-36 -30 -42 -30 -5 0 -10 -9 -10 -20 0 -29 -26 -76 -45 -84 -9 -3 -26 -4 -38
-1 -27 6 -52 -9 -42 -25 10 -17 111 -4 150 20 18 10 61 20 107 24 78 6 108 2
108 -16 0 -5 7 -16 15 -25 9 -8 13 -23 10 -33 -4 -14 2 -19 28 -24 19 -3 49
-20 67 -36 26 -24 43 -30 77 -30 41 0 43 1 43 29 0 30 12 40 45 35 194 -27
231 -23 249 28 10 29 -9 92 -25 82 -5 -3 -7 -9 -4 -14 10 -16 -28 -20 -51 -5
-13 8 -31 14 -41 13 -48 -4 -64 4 -101 50 -21 27 -43 47 -50 44 -15 -5 -16
-39 -1 -44 7 -2 7 -12 0 -31 -12 -31 -42 -36 -56 -8 -6 10 -21 39 -33 64 -17
33 -39 56 -74 77 -28 17 -51 30 -53 28 -10 -11 20 -50 54 -69 35 -19 40 -26
34 -48 -8 -33 -12 -41 -24 -41 -5 0 -9 10 -9 23 0 16 -14 30 -50 52 -27 17
-50 33 -50 38 0 4 -5 7 -12 7 -6 0 -22 9 -34 21 l-23 21 -13 -21z m21 -50
c-15 -5 -22 6 -14 19 6 9 10 9 16 -1 5 -8 4 -15 -2 -18z m16 -51 c0 -13 -5
-25 -11 -27 -14 -5 -25 22 -17 42 8 23 28 12 28 -15z m-115 -8 c0 -13 -12 -22
-22 -16 -10 6 -1 24 13 24 5 0 9 -4 9 -8z m251 -38 c16 -20 -1 -33 -37 -26
-29 5 -30 10 -6 28 22 17 27 17 43 -2z m239 -54 c0 -5 -9 -10 -20 -10 -11 0
-20 5 -20 10 0 6 9 10 20 10 11 0 20 -4 20 -10z"/>
<path d="M3120 2052 c0 -4 23 -33 50 -64 28 -31 50 -64 50 -75 -1 -34 62 -149
90 -165 27 -15 27 -15 22 6 -3 11 -11 25 -19 29 -7 4 -13 18 -13 31 0 13 -9
31 -20 41 -12 11 -32 42 -46 69 -40 80 -114 163 -114 128z"/>
<path d="M1140 1837 c0 -41 30 -238 46 -305 4 -15 13 -36 20 -47 14 -22 44
-96 78 -190 24 -65 168 -294 174 -276 2 6 10 11 18 11 11 0 11 9 -4 48 -10 27
-17 57 -14 68 17 70 -14 148 -93 232 -86 93 -94 107 -105 178 -7 44 -20 80
-35 100 -16 21 -29 57 -37 106 -7 40 -20 84 -30 97 l-18 24 0 -46z"/>
<path d="M3293 1058 c-6 -7 -13 -22 -17 -33 -5 -16 -2 -15 14 5 18 23 25 40
16 40 -2 0 -8 -6 -13 -12z"/>
</g>
</svg>
